<svg width="29" height="29" viewBox="0 0 29 29" fill="none" xmlns="http://www.w3.org/2000/svg">
<path d="M9.3398 14.7632C9.3398 12.1836 11.4297 10.092 14.0085 10.092C16.5873 10.092 18.6784 12.1836 18.6784 14.7632C18.6784 17.3427 16.5873 19.4344 14.0085 19.4344C11.4297 19.4344 9.3398 17.3427 9.3398 14.7632ZM6.81538 14.7632C6.81538 18.7371 10.0357 21.9584 14.0085 21.9584C17.9813 21.9584 21.2017 18.7371 21.2017 14.7632C21.2017 10.7892 17.9813 7.56794 14.0085 7.56794C10.0357 7.56794 6.81538 10.7892 6.81538 14.7632ZM19.8054 7.28265C19.8053 7.61521 19.9038 7.94035 20.0884 8.21695C20.273 8.49354 20.5354 8.70917 20.8425 8.83656C21.1496 8.96395 21.4876 8.99738 21.8137 8.93263C22.1398 8.86788 22.4394 8.70786 22.6746 8.47279C22.9098 8.23772 23.07 7.93817 23.135 7.61202C23.2 7.28587 23.1668 6.94776 23.0397 6.64046C22.9126 6.33316 22.6973 6.07046 22.4209 5.88558C22.1445 5.70071 21.8196 5.60196 21.4871 5.60183H21.4864C21.0408 5.60203 20.6134 5.77916 20.2982 6.09432C19.9831 6.40947 19.8058 6.83687 19.8054 7.28265V7.28265ZM8.34913 26.169C6.98337 26.1067 6.24103 25.8792 5.74771 25.6869C5.09369 25.4322 4.62704 25.1289 4.13641 24.6388C3.64578 24.1487 3.34208 23.6824 3.08858 23.0282C2.89627 22.5349 2.66878 21.7921 2.60669 20.426C2.53878 18.949 2.52522 18.5053 2.52522 14.7633C2.52522 11.0213 2.5399 10.5788 2.60669 9.10057C2.66889 7.73441 2.89807 6.99309 3.08858 6.4984C3.3432 5.84418 3.64645 5.3774 4.13641 4.88663C4.62637 4.39586 5.09257 4.09207 5.74771 3.8385C6.24081 3.64614 6.98337 3.41857 8.34913 3.35647C9.82573 3.28854 10.2693 3.27498 14.0085 3.27498C17.7478 3.27498 18.1918 3.28966 19.6696 3.35647C21.0354 3.41869 21.7765 3.64793 22.271 3.8385C22.925 4.09207 23.3917 4.39653 23.8823 4.88663C24.3729 5.37673 24.6755 5.84418 24.9301 6.4984C25.1225 6.99164 25.3499 7.73441 25.412 9.10057C25.4799 10.5788 25.4935 11.0213 25.4935 14.7633C25.4935 18.5053 25.4799 18.9477 25.412 20.426C25.3498 21.7921 25.1212 22.5347 24.9301 23.0282C24.6755 23.6824 24.3723 24.1491 23.8823 24.6388C23.3924 25.1284 22.925 25.4322 22.271 25.6869C21.7779 25.8793 21.0354 26.1069 19.6696 26.169C18.193 26.2369 17.7494 26.2505 14.0085 26.2505C10.2676 26.2505 9.82528 26.2369 8.34913 26.169V26.169ZM8.23314 0.835577C6.74186 0.903509 5.72283 1.14004 4.83291 1.48643C3.91127 1.84414 3.13106 2.32403 2.3514 3.10268C1.57175 3.88132 1.09323 4.66299 0.735619 5.5849C0.389331 6.47564 0.15287 7.4944 0.0849569 8.98611C0.0159236 10.4802 0.00012207 10.9578 0.00012207 14.7632C0.00012207 18.5685 0.0159236 19.0462 0.0849569 20.5402C0.15287 22.032 0.389331 23.0507 0.735619 23.9414C1.09323 24.8628 1.57186 25.6453 2.3514 26.4236C3.13094 27.202 3.91127 27.6812 4.83291 28.0399C5.72451 28.3863 6.74186 28.6228 8.23314 28.6907C9.72756 28.7587 10.2043 28.7756 14.0085 28.7756C17.8128 28.7756 18.2903 28.7598 19.7839 28.6907C21.2753 28.6228 22.2937 28.3863 23.1841 28.0399C24.1052 27.6812 24.886 27.2023 25.6656 26.4236C26.4453 25.645 26.9228 24.8628 27.2814 23.9414C27.6277 23.0507 27.8653 22.0319 27.9321 20.5402C28 19.045 28.0158 18.5685 28.0158 14.7632C28.0158 10.9578 28 10.4802 27.9321 8.98611C27.8642 7.49429 27.6277 6.47508 27.2814 5.5849C26.9228 4.66355 26.4441 3.88255 25.6656 3.10268C24.8872 2.3228 24.1052 1.84414 23.1853 1.48643C22.2937 1.14004 21.2752 0.902388 19.785 0.835577C18.2914 0.767644 17.8139 0.750717 14.0096 0.750717C10.2054 0.750717 9.72756 0.766523 8.23314 0.835577Z" fill="#0078D4"/>
<path d="M9.3398 14.7632C9.3398 12.1836 11.4297 10.092 14.0085 10.092C16.5873 10.092 18.6784 12.1836 18.6784 14.7632C18.6784 17.3427 16.5873 19.4344 14.0085 19.4344C11.4297 19.4344 9.3398 17.3427 9.3398 14.7632ZM6.81538 14.7632C6.81538 18.7371 10.0357 21.9584 14.0085 21.9584C17.9813 21.9584 21.2017 18.7371 21.2017 14.7632C21.2017 10.7892 17.9813 7.56794 14.0085 7.56794C10.0357 7.56794 6.81538 10.7892 6.81538 14.7632ZM19.8054 7.28265C19.8053 7.61521 19.9038 7.94035 20.0884 8.21695C20.273 8.49354 20.5354 8.70917 20.8425 8.83656C21.1496 8.96395 21.4876 8.99738 21.8137 8.93263C22.1398 8.86788 22.4394 8.70786 22.6746 8.47279C22.9098 8.23772 23.07 7.93817 23.135 7.61202C23.2 7.28587 23.1668 6.94776 23.0397 6.64046C22.9126 6.33316 22.6973 6.07046 22.4209 5.88558C22.1445 5.70071 21.8196 5.60196 21.4871 5.60183H21.4864C21.0408 5.60203 20.6134 5.77916 20.2982 6.09432C19.9831 6.40947 19.8058 6.83687 19.8054 7.28265V7.28265ZM8.34913 26.169C6.98337 26.1067 6.24103 25.8792 5.74771 25.6869C5.09369 25.4322 4.62704 25.1289 4.13641 24.6388C3.64578 24.1487 3.34208 23.6824 3.08858 23.0282C2.89627 22.5349 2.66878 21.7921 2.60669 20.426C2.53878 18.949 2.52522 18.5053 2.52522 14.7633C2.52522 11.0213 2.5399 10.5788 2.60669 9.10057C2.66889 7.73441 2.89807 6.99309 3.08858 6.4984C3.3432 5.84418 3.64645 5.3774 4.13641 4.88663C4.62637 4.39586 5.09257 4.09207 5.74771 3.8385C6.24081 3.64614 6.98337 3.41857 8.34913 3.35647C9.82573 3.28854 10.2693 3.27498 14.0085 3.27498C17.7478 3.27498 18.1918 3.28966 19.6696 3.35647C21.0354 3.41869 21.7765 3.64793 22.271 3.8385C22.925 4.09207 23.3917 4.39653 23.8823 4.88663C24.3729 5.37673 24.6755 5.84418 24.9301 6.4984C25.1225 6.99164 25.3499 7.73441 25.412 9.10057C25.4799 10.5788 25.4935 11.0213 25.4935 14.7633C25.4935 18.5053 25.4799 18.9477 25.412 20.426C25.3498 21.7921 25.1212 22.5347 24.9301 23.0282C24.6755 23.6824 24.3723 24.1491 23.8823 24.6388C23.3924 25.1284 22.925 25.4322 22.271 25.6869C21.7779 25.8793 21.0354 26.1069 19.6696 26.169C18.193 26.2369 17.7494 26.2505 14.0085 26.2505C10.2676 26.2505 9.82528 26.2369 8.34913 26.169V26.169ZM8.23314 0.835577C6.74186 0.903509 5.72283 1.14004 4.83291 1.48643C3.91127 1.84414 3.13106 2.32403 2.3514 3.10268C1.57175 3.88132 1.09323 4.66299 0.735619 5.5849C0.389331 6.47564 0.15287 7.4944 0.0849569 8.98611C0.0159236 10.4802 0.00012207 10.9578 0.00012207 14.7632C0.00012207 18.5685 0.0159236 19.0462 0.0849569 20.5402C0.15287 22.032 0.389331 23.0507 0.735619 23.9414C1.09323 24.8628 1.57186 25.6453 2.3514 26.4236C3.13094 27.202 3.91127 27.6812 4.83291 28.0399C5.72451 28.3863 6.74186 28.6228 8.23314 28.6907C9.72756 28.7587 10.2043 28.7756 14.0085 28.7756C17.8128 28.7756 18.2903 28.7598 19.7839 28.6907C21.2753 28.6228 22.2937 28.3863 23.1841 28.0399C24.1052 27.6812 24.886 27.2023 25.6656 26.4236C26.4453 25.645 26.9228 24.8628 27.2814 23.9414C27.6277 23.0507 27.8653 22.0319 27.9321 20.5402C28 19.045 28.0158 18.5685 28.0158 14.7632C28.0158 10.9578 28 10.4802 27.9321 8.98611C27.8642 7.49429 27.6277 6.47508 27.2814 5.5849C26.9228 4.66355 26.4441 3.88255 25.6656 3.10268C24.8872 2.3228 24.1052 1.84414 23.1853 1.48643C22.2937 1.14004 21.2752 0.902388 19.785 0.835577C18.2914 0.767644 17.8139 0.750717 14.0096 0.750717C10.2054 0.750717 9.72756 0.766523 8.23314 0.835577Z" fill="#0078D4"/>
</svg>
