<svg width="66" height="36" viewBox="0 0 66 36" fill="none" xmlns="http://www.w3.org/2000/svg">
<path fill-rule="evenodd" clip-rule="evenodd" d="M8.52196 21.085C9.60953 21.6898 10.7076 22.23 11.8558 22.6607C11.8608 22.652 11.866 22.6433 11.8711 22.6346C11.837 22.6085 11.8044 22.5805 11.7691 22.5567C11.1606 22.1457 10.5946 21.6815 10.0703 21.1661C9.2308 20.3411 8.52415 19.4121 7.94254 18.3863C7.21354 17.1003 6.71816 15.7269 6.44849 14.2722C6.23807 13.1377 6.16376 11.9931 6.25963 10.8413C6.34281 9.84284 6.56028 8.87848 7.0185 7.98007C7.38711 7.25731 7.88045 6.6425 8.55747 6.19132C9.17044 5.78284 9.84354 5.56765 10.5823 5.59589C11.005 5.61194 11.408 5.72646 11.7978 5.8885C12.4928 6.17724 13.0925 6.60652 13.6163 7.1473C14.4401 7.99794 14.9818 9.01529 15.3472 10.1355C15.6034 10.9212 15.7559 11.7288 15.8465 12.5502C15.9371 13.3717 15.9522 14.1953 15.9246 15.0197C15.8959 15.8797 15.8184 16.7358 15.699 17.5886C15.5252 18.8298 15.266 20.0522 14.9118 21.2528C14.378 23.062 13.6691 24.7953 12.6662 26.3967C12.19 27.157 11.6516 27.8685 11.0143 28.5001C10.3933 29.1152 9.70455 29.6323 8.89222 29.9662C8.25737 30.227 7.59713 30.3472 6.914 30.281C5.75767 30.1689 4.94573 29.4313 4.69126 28.2831C4.56591 27.7176 4.56873 27.1479 4.64595 26.5773C4.77397 25.6325 5.11922 24.768 5.62283 23.9675C6.33348 22.838 7.23926 21.9 8.3596 21.1781C8.41087 21.1451 8.46543 21.1173 8.52196 21.085Z" fill="#0078D4"/>
<path fill-rule="evenodd" clip-rule="evenodd" d="M35.8766 25.3507C35.3055 25.3507 34.7616 25.3507 34.2025 25.3507C34.2025 25.2735 34.2025 25.2074 34.2025 25.1412C34.2025 23.1517 34.2032 21.1622 34.202 19.1728C34.2017 18.6979 34.174 18.2252 34.0582 17.762C33.9843 17.4658 33.8805 17.1815 33.7171 16.9221C33.476 16.5386 33.1465 16.2667 32.7182 16.1213C32.2886 15.9754 31.8485 15.941 31.403 16.0182C30.8086 16.1212 30.3511 16.4485 29.9923 16.9266C29.606 17.4413 29.4016 18.0291 29.3311 18.6646C29.3011 18.9354 29.2904 19.2095 29.2899 19.4822C29.2865 21.3686 29.2882 23.2549 29.2882 25.1413C29.2882 25.2071 29.2882 25.2729 29.2882 25.3335C29.1584 25.367 27.8266 25.3745 27.639 25.3475C27.6057 25.2388 27.5909 15.0921 27.6238 14.8284C27.7323 14.7975 29.1004 14.7908 29.2878 14.824C29.2878 15.3628 29.2878 15.9058 29.2878 16.4488C29.3002 16.4532 29.3124 16.4576 29.3248 16.462C29.3543 16.4189 29.3852 16.3766 29.4131 16.3324C29.7237 15.8392 30.1045 15.4156 30.5978 15.1004C31.051 14.811 31.5466 14.6484 32.0763 14.5871C32.5366 14.5339 32.9948 14.5434 33.4434 14.6734C34.4173 14.9554 35.0852 15.5795 35.4627 16.5246C35.4818 16.5724 35.4985 16.621 35.517 16.6689C35.5207 16.6781 35.5279 16.686 35.5473 16.7161C35.5849 16.6542 35.6184 16.6014 35.6501 16.5475C35.8828 16.1504 36.1582 15.7891 36.5002 15.4793C36.9959 15.03 37.5719 14.7475 38.2253 14.6292C38.8407 14.5179 39.4551 14.5301 40.0647 14.6789C40.9621 14.8982 41.6023 15.435 41.9969 16.2747C42.2069 16.7214 42.3192 17.1956 42.3899 17.6819C42.4514 18.1063 42.4647 18.5337 42.465 18.9615C42.4661 21.0231 42.4655 23.0848 42.4655 25.1463C42.4655 25.2117 42.4655 25.277 42.4655 25.352C41.8994 25.352 41.3554 25.352 40.7919 25.352C40.7919 25.2769 40.7919 25.2112 40.7919 25.1458C40.7919 23.2491 40.7921 21.3524 40.7919 19.4557C40.7917 18.9399 40.7737 18.4252 40.6807 17.9161C40.6304 17.6419 40.556 17.3752 40.4466 17.1181C40.22 16.5864 39.8329 16.2402 39.2795 16.0883C38.8549 15.9717 38.4247 15.9394 37.9909 16.0315C37.4675 16.1427 37.061 16.4433 36.7245 16.8481C36.2696 17.3956 36.0005 18.0278 35.9188 18.7367C35.8901 18.9868 35.8788 19.2401 35.8784 19.492C35.8751 21.3681 35.8766 23.2442 35.8766 25.1202C35.8766 25.1914 35.8766 25.2626 35.8766 25.3507Z" fill="#0078D4"/>
<path fill-rule="evenodd" clip-rule="evenodd" d="M13.4288 27.938C13.4296 27.414 13.5298 26.9046 13.6559 26.3993C13.822 25.7338 14.0618 25.0937 14.3114 24.4566C14.9585 22.8046 15.5989 21.1498 16.3061 19.5227C16.6893 18.6412 17.0725 17.7579 17.5025 16.8993C18.1413 15.6238 18.9376 14.4535 19.9565 13.4493C20.2386 13.1712 20.5434 12.9212 20.8892 12.7262C21.132 12.5893 21.3858 12.4867 21.6683 12.471C22.2508 12.4388 22.6227 12.7451 22.7094 13.3263C22.7654 13.7024 22.741 14.077 22.692 14.4504C22.574 15.3476 22.2765 16.189 21.8988 17.0044C21.3622 18.1625 20.6748 19.227 19.9162 20.2468C19.3486 21.0097 18.744 21.7415 18.0924 22.4331C18.0118 22.5185 17.9841 22.6055 17.9832 22.7207C17.9678 24.5454 17.4592 26.2218 16.4767 27.7513C16.184 28.2072 15.8414 28.6229 15.4232 28.9693C15.213 29.1435 14.9885 29.2994 14.7247 29.3759C14.5846 29.4164 14.4333 29.444 14.2889 29.4371C13.95 29.4213 13.7211 29.2299 13.5866 28.9216C13.4781 28.6728 13.4428 28.4076 13.4292 28.1388C13.4259 28.0722 13.4288 28.005 13.4288 27.938Z" fill="#0078D4"/>
<path fill-rule="evenodd" clip-rule="evenodd" d="M61.2965 25.3336C61.1539 25.3708 59.7627 25.3712 59.6222 25.3354C59.6222 25.2725 59.6222 25.2062 59.6222 25.14C59.6222 23.1922 59.6226 21.2445 59.6216 19.2967C59.6216 18.8734 59.5874 18.4529 59.5048 18.0373C59.4515 17.7689 59.3746 17.5079 59.2622 17.2581C58.9524 16.5697 58.4378 16.1446 57.6912 16.0238C56.9739 15.9077 56.2943 16.0105 55.6823 16.4228C55.1345 16.7919 54.7595 17.3041 54.5263 17.9233C54.3573 18.3718 54.2875 18.8391 54.2868 19.3163C54.2843 21.2589 54.2857 23.2015 54.2855 25.144C54.2855 25.2097 54.2855 25.2754 54.2855 25.3511C53.7253 25.3511 53.1813 25.3511 52.639 25.3511C52.6054 25.2396 52.593 15.059 52.6244 14.8293C52.733 14.7971 54.0899 14.7899 54.288 14.8243C54.288 15.3923 54.288 15.9644 54.288 16.5365C54.301 16.5407 54.3141 16.545 54.3272 16.5492C54.3598 16.501 54.3937 16.4534 54.4249 16.4042C54.641 16.064 54.8944 15.7558 55.1937 15.4865C55.7063 15.0251 56.3058 14.7426 56.9794 14.6251C57.5792 14.5206 58.179 14.5295 58.7735 14.6738C59.7139 14.9022 60.381 15.4717 60.8043 16.3402C61.0527 16.8496 61.189 17.3938 61.2395 17.9563C61.2756 18.3557 61.293 18.7582 61.294 19.1594C61.2993 21.1585 61.2965 23.1579 61.2965 25.1571C61.2965 25.2177 61.2965 25.2782 61.2965 25.3336Z" fill="#0078D4"/>
<path fill-rule="evenodd" clip-rule="evenodd" d="M44.2996 24.9802C44.2996 24.3703 44.2996 23.7838 44.2996 23.1724C44.35 23.2023 44.3879 23.2217 44.4224 23.2459C44.9614 23.6232 45.5477 23.894 46.1902 24.0317C46.7719 24.1562 47.3555 24.1671 47.9355 24.0158C48.16 23.9573 48.3688 23.8616 48.548 23.7098C48.8907 23.4194 48.998 23.0344 48.9718 22.6015C48.9441 22.1467 48.7056 21.811 48.3603 21.5414C48.0594 21.3064 47.7192 21.1402 47.3775 20.9771C46.9484 20.7725 46.515 20.5768 46.092 20.3601C45.643 20.1303 45.2342 19.8398 44.9089 19.4447C44.555 19.0149 44.3697 18.5169 44.3251 17.962C44.2816 17.4224 44.3536 16.9024 44.5876 16.4121C44.9511 15.6496 45.5495 15.1446 46.3188 14.8362C46.892 14.6065 47.491 14.5266 48.1052 14.543C48.792 14.5614 49.4499 14.7077 50.0816 14.9814C50.1904 15.0285 50.2356 15.0847 50.2333 15.2097C50.2251 15.6578 50.2301 16.1062 50.23 16.5545C50.23 16.5999 50.23 16.6453 50.23 16.711C50.1828 16.6893 50.1517 16.6784 50.1241 16.6617C49.5151 16.2909 48.8583 16.0688 48.1481 16.0139C47.7255 15.9812 47.3101 16.0151 46.9172 16.189C46.4461 16.3974 46.1359 16.7448 46.0528 17.2684C45.9821 17.7151 46.0849 18.1173 46.391 18.4574C46.6073 18.6977 46.871 18.8753 47.1583 19.0126C47.6008 19.2241 48.0502 19.4214 48.4969 19.6241C48.8512 19.7849 49.1959 19.9627 49.5169 20.1856C50.3353 20.7541 50.7256 21.5426 50.7095 22.5399C50.6968 23.3361 50.4379 24.0314 49.869 24.5977C49.4467 25.0179 48.935 25.2738 48.369 25.4274C47.8022 25.5812 47.224 25.6263 46.6387 25.6001C46.0275 25.5726 45.4303 25.474 44.8601 25.2441C44.6671 25.1661 44.4824 25.0669 44.2996 24.9802Z" fill="#0078D4"/>
</svg>
